<?xml version="1.0" encoding="UTF-8"?>
<!DOCTYPE svg PUBLIC "-//W3C//DTD SVG 1.1//EN" "http://www.w3.org/Graphics/SVG/1.1/DTD/svg11.dtd">
<svg version="1.2" width="35.56mm" height="15.24mm" viewBox="0 0 3556 1524" preserveAspectRatio="xMidYMid" fill-rule="evenodd" stroke-width="28.222" stroke-linejoin="round" xmlns="http://www.w3.org/2000/svg" xmlns:ooo="http://xml.openoffice.org/svg/export" xmlns:xlink="http://www.w3.org/1999/xlink" xmlns:presentation="http://sun.com/xmlns/staroffice/presentation" xmlns:smil="http://www.w3.org/2001/SMIL20/" xmlns:anim="urn:oasis:names:tc:opendocument:xmlns:animation:1.0" xml:space="preserve">
 <defs class="ClipPathGroup">
  <clipPath id="presentation_clip_path" clipPathUnits="userSpaceOnUse">
   <rect x="0" y="0" width="3556" height="1524"/>
  </clipPath>
  <clipPath id="presentation_clip_path_shrink" clipPathUnits="userSpaceOnUse">
   <rect x="3" y="1" width="3549" height="1521"/>
  </clipPath>
 </defs>
 <defs class="TextShapeIndex">
  <g ooo:slide="id1" ooo:id-list="id3 id4 id5 id6 id7 id8 id9 id10 id11 id12"/>
 </defs>
 <defs class="EmbeddedBulletChars">
  <g id="bullet-char-template-57356" transform="scale(0.00048828125,-0.00048828125)">
   <path d="M 580,1141 L 1163,571 580,0 -4,571 580,1141 Z"/>
  </g>
  <g id="bullet-char-template-57354" transform="scale(0.00048828125,-0.00048828125)">
   <path d="M 8,1128 L 1137,1128 1137,0 8,0 8,1128 Z"/>
  </g>
  <g id="bullet-char-template-10146" transform="scale(0.00048828125,-0.00048828125)">
   <path d="M 174,0 L 602,739 174,1481 1456,739 174,0 Z M 1358,739 L 309,1346 659,739 1358,739 Z"/>
  </g>
  <g id="bullet-char-template-10132" transform="scale(0.00048828125,-0.00048828125)">
   <path d="M 2015,739 L 1276,0 717,0 1260,543 174,543 174,936 1260,936 717,1481 1274,1481 2015,739 Z"/>
  </g>
  <g id="bullet-char-template-10007" transform="scale(0.00048828125,-0.00048828125)">
   <path d="M 0,-2 C -7,14 -16,27 -25,37 L 356,567 C 262,823 215,952 215,954 215,979 228,992 255,992 264,992 276,990 289,987 310,991 331,999 354,1012 L 381,999 492,748 772,1049 836,1024 860,1049 C 881,1039 901,1025 922,1006 886,937 835,863 770,784 769,783 710,716 594,584 L 774,223 C 774,196 753,168 711,139 L 727,119 C 717,90 699,76 672,76 641,76 570,178 457,381 L 164,-76 C 142,-110 111,-127 72,-127 30,-127 9,-110 8,-76 1,-67 -2,-52 -2,-32 -2,-23 -1,-13 0,-2 Z"/>
  </g>
  <g id="bullet-char-template-10004" transform="scale(0.00048828125,-0.00048828125)">
   <path d="M 285,-33 C 182,-33 111,30 74,156 52,228 41,333 41,471 41,549 55,616 82,672 116,743 169,778 240,778 293,778 328,747 346,684 L 369,508 C 377,444 397,411 428,410 L 1163,1116 C 1174,1127 1196,1133 1229,1133 1271,1133 1292,1118 1292,1087 L 1292,965 C 1292,929 1282,901 1262,881 L 442,47 C 390,-6 338,-33 285,-33 Z"/>
  </g>
  <g id="bullet-char-template-9679" transform="scale(0.00048828125,-0.00048828125)">
   <path d="M 813,0 C 632,0 489,54 383,161 276,268 223,411 223,592 223,773 276,916 383,1023 489,1130 632,1184 813,1184 992,1184 1136,1130 1245,1023 1353,916 1407,772 1407,592 1407,412 1353,268 1245,161 1136,54 992,0 813,0 Z"/>
  </g>
  <g id="bullet-char-template-8226" transform="scale(0.00048828125,-0.00048828125)">
   <path d="M 346,457 C 273,457 209,483 155,535 101,586 74,649 74,723 74,796 101,859 155,911 209,963 273,989 346,989 419,989 480,963 531,910 582,859 608,796 608,723 608,648 583,586 532,535 482,483 420,457 346,457 Z"/>
  </g>
  <g id="bullet-char-template-8211" transform="scale(0.00048828125,-0.00048828125)">
   <path d="M -4,459 L 1135,459 1135,606 -4,606 -4,459 Z"/>
  </g>
  <g id="bullet-char-template-61548" transform="scale(0.00048828125,-0.00048828125)">
   <path d="M 173,740 C 173,903 231,1043 346,1159 462,1274 601,1332 765,1332 928,1332 1067,1274 1183,1159 1299,1043 1357,903 1357,740 1357,577 1299,437 1183,322 1067,206 928,148 765,148 601,148 462,206 346,322 231,437 173,577 173,740 Z"/>
  </g>
 </defs>
 <defs class="TextEmbeddedBitmaps"/>
 <g>
  <g id="id2" class="Master_Slide">
   <g id="bg-id2" class="Background"/>
   <g id="bo-id2" class="BackgroundObjects"/>
  </g>
 </g>
 <g class="SlideGroup">
  <g>
   <g id="container-id1">
    <g id="id1" class="Slide" clip-path="url(#presentation_clip_path)">
     <g class="Page">
      <g class="com.sun.star.drawing.ClosedBezierShape">
       <g id="id3">
        <rect class="BoundingBox" stroke="none" fill="none" x="617" y="109" width="2323" height="1307"/>
        <path fill="rgb(178,178,178)" stroke="none" d="M 889,127 C 635,127 635,381 635,381 635,381 635,635 889,635 1143,635 1397,635 1397,635 1397,635 1524,635 1524,762 1524,889 1397,889 1397,889 L 1143,889 C 1143,889 889,889 889,1143 889,1397 1143,1397 1143,1397 L 2667,1397 C 2667,1397 2921,1397 2921,1143 2921,889 2667,889 2667,889 L 1905,889 C 1905,889 1778,889 1778,762 1778,635 1905,635 1905,635 1905,635 2159,635 2159,381 2159,127 1905,127 1905,127 L 1651,127 889,127 Z"/>
        <path fill="none" stroke="rgb(204,204,204)" stroke-width="35" stroke-linejoin="round" d="M 889,127 C 635,127 635,381 635,381 635,381 635,635 889,635 1143,635 1397,635 1397,635 1397,635 1524,635 1524,762 1524,889 1397,889 1397,889 L 1143,889 C 1143,889 889,889 889,1143 889,1397 1143,1397 1143,1397 L 2667,1397 C 2667,1397 2921,1397 2921,1143 2921,889 2667,889 2667,889 L 1905,889 C 1905,889 1778,889 1778,762 1778,635 1905,635 1905,635 1905,635 2159,635 2159,381 2159,127 1905,127 1905,127 L 1651,127 889,127 Z"/>
       </g>
      </g>
      <g class="com.sun.star.drawing.CustomShape">
       <g id="id4">
        <rect class="BoundingBox" stroke="none" fill="none" x="109" y="871" width="546" height="546"/>
        <path fill="rgb(178,178,178)" stroke="none" d="M 381,889 C 525,889 635,999 635,1143 635,1287 525,1397 381,1397 237,1397 127,1287 127,1143 127,999 237,889 381,889 Z M 127,889 L 127,889 Z M 636,1398 L 636,1398 Z"/>
        <path fill="none" stroke="rgb(204,204,204)" stroke-width="35" stroke-linejoin="round" d="M 381,889 C 525,889 635,999 635,1143 635,1287 525,1397 381,1397 237,1397 127,1287 127,1143 127,999 237,889 381,889 Z"/>
       </g>
      </g>
      <g class="Group">
       <g class="com.sun.star.drawing.ClosedBezierShape">
        <g id="id5">
         <rect class="BoundingBox" stroke="none" fill="none" x="1223" y="1084" width="325" height="254"/>
         <path fill="rgb(255,255,255)" stroke="none" d="M 1478,1181 C 1478,1159 1468,1143 1447,1131 1425,1120 1397,1114 1362,1114 1342,1114 1327,1114 1316,1115 1305,1116 1296,1117 1289,1118 L 1289,1233 C 1297,1236 1309,1239 1324,1242 1339,1246 1355,1247 1373,1247 1392,1247 1408,1245 1422,1242 1435,1239 1446,1234 1454,1228 1463,1222 1469,1215 1473,1207 1476,1199 1478,1190 1478,1181 Z M 1547,1181 C 1547,1194 1543,1207 1536,1219 1529,1231 1518,1241 1504,1249 1490,1258 1472,1264 1452,1269 1431,1274 1408,1276 1382,1276 1360,1276 1342,1275 1325,1272 1309,1269 1297,1266 1289,1264 L 1289,1337 1223,1337 1223,1094 C 1239,1092 1258,1090 1282,1088 1305,1086 1332,1085 1363,1085 1391,1085 1416,1087 1439,1091 1461,1096 1481,1102 1497,1110 1513,1119 1525,1129 1534,1141 1542,1152 1547,1166 1547,1181 Z"/>
        </g>
       </g>
       <g class="com.sun.star.drawing.ClosedBezierShape">
        <g id="id6">
         <rect class="BoundingBox" stroke="none" fill="none" x="1613" y="1084" width="288" height="193"/>
         <path fill="rgb(255,255,255)" stroke="none" d="M 1764,1248 C 1779,1248 1793,1248 1805,1248 1817,1248 1827,1247 1835,1246 L 1835,1191 C 1830,1190 1823,1189 1812,1188 1802,1187 1789,1187 1774,1187 1764,1187 1753,1187 1742,1188 1731,1189 1721,1190 1712,1192 1703,1195 1695,1198 1689,1202 1683,1205 1680,1211 1680,1217 1680,1229 1687,1237 1702,1241 1717,1246 1738,1248 1764,1248 Z M 1758,1084 C 1784,1084 1807,1086 1825,1089 1843,1093 1858,1097 1869,1104 1880,1110 1888,1117 1892,1126 1897,1134 1899,1144 1899,1154 L 1899,1269 C 1894,1269 1886,1270 1876,1271 1866,1272 1854,1272 1841,1273 1829,1274 1815,1275 1800,1275 1785,1276 1771,1276 1756,1276 1735,1276 1716,1275 1699,1273 1681,1271 1666,1267 1654,1263 1641,1258 1631,1252 1624,1245 1617,1237 1613,1228 1613,1217 1613,1207 1617,1199 1626,1191 1634,1184 1645,1178 1659,1174 1673,1169 1690,1166 1709,1164 1728,1162 1747,1161 1768,1161 1775,1161 1781,1161 1788,1161 1796,1161 1802,1162 1809,1162 1815,1163 1820,1164 1825,1164 1830,1165 1833,1165 1835,1165 L 1835,1156 C 1835,1151 1834,1145 1832,1140 1829,1135 1825,1130 1819,1126 1813,1122 1804,1118 1794,1116 1783,1113 1769,1112 1752,1112 1731,1112 1712,1113 1696,1115 1679,1116 1667,1118 1659,1119 L 1651,1092 C 1660,1090 1674,1088 1694,1087 1714,1085 1735,1084 1758,1084 Z"/>
        </g>
       </g>
       <g class="com.sun.star.drawing.ClosedBezierShape">
        <g id="id7">
         <rect class="BoundingBox" stroke="none" fill="none" x="1987" y="1084" width="280" height="193"/>
         <path fill="rgb(255,255,255)" stroke="none" d="M 2167,1276 C 2137,1276 2111,1274 2089,1269 2067,1264 2048,1258 2033,1249 2017,1241 2006,1231 1998,1219 1991,1207 1987,1195 1987,1181 1987,1166 1991,1154 1999,1142 2008,1130 2019,1120 2034,1111 2049,1103 2068,1096 2090,1091 2112,1086 2136,1084 2163,1084 2179,1084 2196,1085 2212,1086 2229,1088 2244,1090 2260,1093 L 2245,1121 C 2235,1118 2223,1116 2210,1115 2198,1114 2184,1113 2169,1113 2132,1113 2104,1119 2085,1130 2065,1142 2056,1158 2056,1181 2056,1190 2058,1199 2062,1208 2067,1216 2074,1223 2083,1229 2093,1235 2105,1239 2120,1242 2136,1246 2154,1247 2176,1247 2193,1247 2209,1246 2223,1245 2237,1243 2248,1241 2256,1239 L 2265,1267 C 2261,1268 2256,1269 2249,1270 2242,1271 2234,1272 2225,1273 2216,1274 2206,1275 2196,1275 2186,1276 2176,1276 2167,1276 Z"/>
        </g>
       </g>
       <g class="com.sun.star.drawing.ClosedBezierShape">
        <g id="id8">
         <rect class="BoundingBox" stroke="none" fill="none" x="2333" y="998" width="304" height="275"/>
         <path fill="rgb(255,255,255)" stroke="none" d="M 2466,1171 C 2480,1177 2495,1183 2511,1191 2527,1199 2542,1208 2558,1217 2573,1226 2587,1236 2601,1245 2615,1255 2626,1264 2636,1272 L 2559,1272 C 2549,1264 2537,1255 2524,1247 2512,1238 2498,1230 2484,1222 2470,1214 2455,1207 2441,1200 2426,1194 2412,1188 2399,1184 L 2399,1272 2333,1272 2333,1004 2399,998 2399,1165 C 2410,1160 2423,1154 2437,1147 2450,1140 2464,1133 2477,1126 2490,1119 2502,1112 2514,1106 2526,1099 2536,1094 2545,1089 L 2622,1089 C 2611,1094 2599,1101 2586,1108 2573,1115 2560,1122 2547,1129 2533,1137 2519,1144 2505,1151 2492,1158 2478,1165 2466,1171 Z"/>
        </g>
       </g>
      </g>
      <g class="Group">
       <g class="com.sun.star.drawing.ClosedBezierShape">
        <g id="id9">
         <rect class="BoundingBox" stroke="none" fill="none" x="907" y="236" width="224" height="275"/>
         <path fill="rgb(255,255,255)" stroke="none" d="M 1051,236 C 1070,236 1087,237 1101,238 1114,240 1124,241 1130,242 L 1118,270 C 1112,269 1104,267 1094,266 1084,265 1071,264 1056,264 1025,264 1004,268 991,277 979,285 973,296 973,311 L 973,326 1114,326 1114,354 973,354 973,510 907,510 907,310 C 907,286 919,268 942,255 965,242 1001,236 1051,236 Z"/>
        </g>
       </g>
       <g class="com.sun.star.drawing.ClosedBezierShape">
        <g id="id10">
         <rect class="BoundingBox" stroke="none" fill="none" x="1159" y="322" width="346" height="194"/>
         <path fill="rgb(255,255,255)" stroke="none" d="M 1504,419 C 1504,433 1499,446 1491,458 1482,470 1470,480 1455,489 1440,497 1422,504 1400,508 1379,513 1356,515 1331,515 1306,515 1283,513 1262,508 1241,504 1223,497 1207,489 1192,480 1180,470 1172,458 1163,446 1159,433 1159,419 1159,404 1163,391 1172,379 1180,367 1192,357 1207,349 1223,340 1241,334 1262,329 1283,324 1306,322 1331,322 1356,322 1379,324 1400,329 1422,334 1440,340 1455,349 1470,357 1482,367 1491,379 1499,391 1504,404 1504,419 Z M 1435,419 C 1435,398 1426,381 1407,369 1389,357 1363,351 1331,351 1299,351 1274,357 1255,369 1237,381 1228,398 1228,419 1228,439 1237,456 1255,468 1274,480 1299,486 1331,486 1363,486 1389,480 1407,468 1426,456 1435,439 1435,419 Z"/>
        </g>
       </g>
       <g class="com.sun.star.drawing.ClosedBezierShape">
        <g id="id11">
         <rect class="BoundingBox" stroke="none" fill="none" x="1573" y="322" width="317" height="255"/>
         <path fill="rgb(255,255,255)" stroke="none" d="M 1824,491 C 1818,493 1807,496 1791,499 1775,502 1756,503 1734,503 1712,503 1691,501 1671,498 1652,494 1635,489 1620,481 1606,474 1594,465 1586,454 1577,442 1573,429 1573,414 1573,401 1577,388 1585,377 1593,366 1605,356 1620,348 1635,340 1654,334 1676,329 1698,324 1723,322 1751,322 1782,322 1808,323 1831,325 1854,328 1873,330 1889,332 L 1889,495 C 1889,524 1874,544 1845,557 1816,570 1771,576 1712,576 1689,576 1667,575 1647,573 1626,571 1609,569 1593,566 L 1605,538 C 1619,540 1635,543 1654,545 1673,547 1693,548 1713,548 1753,548 1781,544 1798,536 1815,528 1824,516 1824,499 L 1824,491 Z M 1823,355 C 1816,354 1807,353 1796,352 1785,351 1770,351 1752,351 1716,351 1689,357 1670,368 1651,380 1642,395 1642,414 1642,425 1644,434 1650,442 1655,449 1662,455 1671,460 1681,465 1691,469 1703,471 1715,474 1728,475 1740,475 1758,475 1774,474 1788,471 1803,469 1814,466 1823,462 L 1823,355 Z"/>
        </g>
       </g>
      </g>
      <g class="com.sun.star.drawing.ClosedBezierShape">
       <g id="id12">
        <rect class="BoundingBox" stroke="none" fill="none" x="2395" y="109" width="1053" height="545"/>
        <path fill="rgb(178,178,178)" stroke="none" d="M 2667,127 C 2413,127 2413,381 2413,381 2413,381 2413,635 2667,635 2921,635 3175,635 3175,635 3175,635 3429,635 3429,381 3429,127 3175,127 3175,127 L 2667,127 Z"/>
        <path fill="none" stroke="rgb(204,204,204)" stroke-width="35" stroke-linejoin="round" d="M 2667,127 C 2413,127 2413,381 2413,381 2413,381 2413,635 2667,635 2921,635 3175,635 3175,635 3175,635 3429,635 3429,381 3429,127 3175,127 3175,127 L 2667,127 Z"/>
       </g>
      </g>
     </g>
    </g>
   </g>
  </g>
 </g>
</svg>